<svg fill="#fff" width="102" height="60" viewBox="0 0 102 60" xmlns="http://www.w3.org/2000/svg" class="logo header-logo"><g clip-path="url(#a)"><path d="M30.7 36.42h25.195C55.289 42.907 49.872 48 43.296 48c-6.575 0-11.991-5.093-12.597-11.58h.001ZM12.725 22.484v25.458c6.417-.612 11.458-6.087 11.458-12.73 0-6.642-5.041-12.114-11.458-12.727Zm30.572-.057c-6.574 0-11.991 5.095-12.597 11.582h25.195c-.606-6.487-6.023-11.582-12.599-11.582h.002ZM0 31.719V48h10.263V12H0v19.719ZM91.47 12v36h10.263V12H91.47ZM77.623 35.214c0 .808.078 1.598.22 2.364 1.031 5.536 5.602 9.826 11.24 10.363V22.484c-6.417.613-11.459 6.087-11.459 12.73h-.001ZM61.085 48h10.262V12H61.085v36Z"/></g><defs><clipPath id="a"><path d="M0 12h101.733v36H0z"/></clipPath></defs></svg>